<mxfile host="app.diagrams.net" agent="Mozilla/5.0 (Windows NT 10.0; Win64; x64) AppleWebKit/537.36 (KHTML, like Gecko) Chrome/126.0.0.0 YaBrowser/24.7.0.0 Safari/537.36" version="24.8.0">
  <diagram name="Page-1" id="U66QM3heJmsHc4ZlD6Vr">
    <mxGraphModel dx="2336" dy="799" grid="1" gridSize="10" guides="1" tooltips="1" connect="1" arrows="1" fold="1" page="1" pageScale="1" pageWidth="827" pageHeight="1169" math="0" shadow="0">
      <root>
        <mxCell id="0" />
        <mxCell id="1" parent="0" />
        <mxCell id="pVxgnFotbOAKtdbPvEfk-1" value="Читатель" style="rounded=0;whiteSpace=wrap;html=1;" parent="1" vertex="1">
          <mxGeometry x="120" y="330" width="120" height="60" as="geometry" />
        </mxCell>
        <mxCell id="pVxgnFotbOAKtdbPvEfk-2" value="Читательский билет" style="rounded=1;whiteSpace=wrap;html=1;" parent="1" vertex="1">
          <mxGeometry x="320" y="330" width="120" height="60" as="geometry" />
        </mxCell>
        <mxCell id="pVxgnFotbOAKtdbPvEfk-3" value="" style="endArrow=ERmandOne;html=1;rounded=0;entryX=0;entryY=0.5;entryDx=0;entryDy=0;endFill=0;startArrow=ERmandOne;startFill=0;" parent="1" target="pVxgnFotbOAKtdbPvEfk-2" edge="1">
          <mxGeometry relative="1" as="geometry">
            <mxPoint x="240" y="359.5" as="sourcePoint" />
            <mxPoint x="400" y="359.5" as="targetPoint" />
          </mxGeometry>
        </mxCell>
        <mxCell id="pVxgnFotbOAKtdbPvEfk-4" value="Родитель" style="rounded=1;whiteSpace=wrap;html=1;" parent="1" vertex="1">
          <mxGeometry x="120" y="210" width="120" height="60" as="geometry" />
        </mxCell>
        <mxCell id="pVxgnFotbOAKtdbPvEfk-5" value="" style="endArrow=ERoneToMany;html=1;rounded=0;exitX=0.5;exitY=1;exitDx=0;exitDy=0;startArrow=ERzeroToOne;startFill=0;endFill=0;" parent="1" source="pVxgnFotbOAKtdbPvEfk-4" target="pVxgnFotbOAKtdbPvEfk-1" edge="1">
          <mxGeometry relative="1" as="geometry">
            <mxPoint x="170" y="280" as="sourcePoint" />
            <mxPoint x="330" y="280" as="targetPoint" />
          </mxGeometry>
        </mxCell>
        <mxCell id="pVxgnFotbOAKtdbPvEfk-6" value="Экземпляр книги" style="rounded=1;whiteSpace=wrap;html=1;" parent="1" vertex="1">
          <mxGeometry x="320" y="450" width="120" height="60" as="geometry" />
        </mxCell>
        <mxCell id="pVxgnFotbOAKtdbPvEfk-7" value="" style="endArrow=ERzeroToMany;html=1;rounded=0;exitX=0.5;exitY=1;exitDx=0;exitDy=0;startArrow=ERzeroToMany;startFill=0;endFill=0;" parent="1" edge="1">
          <mxGeometry relative="1" as="geometry">
            <mxPoint x="379.5" y="390" as="sourcePoint" />
            <mxPoint x="379.5" y="450" as="targetPoint" />
          </mxGeometry>
        </mxCell>
        <mxCell id="pVxgnFotbOAKtdbPvEfk-8" value="Книга" style="rounded=1;whiteSpace=wrap;html=1;" parent="1" vertex="1">
          <mxGeometry x="120" y="450" width="120" height="60" as="geometry" />
        </mxCell>
        <mxCell id="pVxgnFotbOAKtdbPvEfk-9" value="" style="endArrow=ERoneToMany;html=1;rounded=0;entryX=0;entryY=0.5;entryDx=0;entryDy=0;endFill=0;startArrow=ERmandOne;startFill=0;" parent="1" edge="1">
          <mxGeometry relative="1" as="geometry">
            <mxPoint x="240" y="479.5" as="sourcePoint" />
            <mxPoint x="320" y="480" as="targetPoint" />
          </mxGeometry>
        </mxCell>
        <mxCell id="pVxgnFotbOAKtdbPvEfk-10" value="Автор" style="rounded=1;whiteSpace=wrap;html=1;" parent="1" vertex="1">
          <mxGeometry x="-80" y="450" width="120" height="60" as="geometry" />
        </mxCell>
        <mxCell id="pVxgnFotbOAKtdbPvEfk-11" value="" style="endArrow=ERoneToMany;html=1;rounded=0;entryX=0;entryY=0.5;entryDx=0;entryDy=0;endFill=0;startArrow=ERoneToMany;startFill=0;" parent="1" edge="1">
          <mxGeometry relative="1" as="geometry">
            <mxPoint x="40" y="460" as="sourcePoint" />
            <mxPoint x="120" y="460.5" as="targetPoint" />
          </mxGeometry>
        </mxCell>
        <mxCell id="pVxgnFotbOAKtdbPvEfk-13" value="Выдача экземпляра книги" style="rounded=1;whiteSpace=wrap;html=1;" parent="1" vertex="1">
          <mxGeometry x="520" y="450" width="120" height="60" as="geometry" />
        </mxCell>
        <mxCell id="pVxgnFotbOAKtdbPvEfk-14" value="" style="endArrow=ERzeroToMany;html=1;rounded=0;entryX=0;entryY=0.5;entryDx=0;entryDy=0;endFill=0;startArrow=ERmandOne;startFill=0;" parent="1" edge="1">
          <mxGeometry relative="1" as="geometry">
            <mxPoint x="440" y="479.5" as="sourcePoint" />
            <mxPoint x="520" y="480" as="targetPoint" />
          </mxGeometry>
        </mxCell>
        <mxCell id="pVxgnFotbOAKtdbPvEfk-15" value="" style="endArrow=ERzeroToMany;html=1;rounded=0;endFill=0;startArrow=ERmandOne;startFill=0;entryX=0.167;entryY=0;entryDx=0;entryDy=0;entryPerimeter=0;exitX=1;exitY=0.833;exitDx=0;exitDy=0;exitPerimeter=0;" parent="1" source="pVxgnFotbOAKtdbPvEfk-2" target="pVxgnFotbOAKtdbPvEfk-13" edge="1">
          <mxGeometry relative="1" as="geometry">
            <mxPoint x="440" y="359.5" as="sourcePoint" />
            <mxPoint x="540" y="410" as="targetPoint" />
            <Array as="points">
              <mxPoint x="490" y="380" />
              <mxPoint x="540" y="380" />
            </Array>
          </mxGeometry>
        </mxCell>
        <mxCell id="pVxgnFotbOAKtdbPvEfk-16" value="Оплата" style="rounded=1;whiteSpace=wrap;html=1;" parent="1" vertex="1">
          <mxGeometry x="520" y="290" width="120" height="60" as="geometry" />
        </mxCell>
        <mxCell id="pVxgnFotbOAKtdbPvEfk-17" value="" style="endArrow=ERmandOne;html=1;rounded=0;exitX=0.5;exitY=1;exitDx=0;exitDy=0;startArrow=ERzeroToOne;startFill=0;endFill=0;" parent="1" source="pVxgnFotbOAKtdbPvEfk-16" edge="1">
          <mxGeometry relative="1" as="geometry">
            <mxPoint x="579.5" y="390" as="sourcePoint" />
            <mxPoint x="579.5" y="450" as="targetPoint" />
          </mxGeometry>
        </mxCell>
        <mxCell id="pVxgnFotbOAKtdbPvEfk-18" value="Издательство" style="rounded=1;whiteSpace=wrap;html=1;" parent="1" vertex="1">
          <mxGeometry x="120" y="570" width="120" height="60" as="geometry" />
        </mxCell>
        <mxCell id="pVxgnFotbOAKtdbPvEfk-19" value="" style="endArrow=ERmandOne;html=1;rounded=0;exitX=0.5;exitY=1;exitDx=0;exitDy=0;startArrow=ERoneToMany;startFill=0;endFill=0;" parent="1" edge="1">
          <mxGeometry relative="1" as="geometry">
            <mxPoint x="179.5" y="510" as="sourcePoint" />
            <mxPoint x="179.5" y="570" as="targetPoint" />
          </mxGeometry>
        </mxCell>
        <mxCell id="pVxgnFotbOAKtdbPvEfk-20" value="" style="endArrow=ERmandOne;html=1;rounded=0;exitX=0.5;exitY=1;exitDx=0;exitDy=0;startArrow=ERoneToMany;startFill=0;endFill=0;entryX=1;entryY=0.5;entryDx=0;entryDy=0;" parent="1" target="pVxgnFotbOAKtdbPvEfk-18" edge="1">
          <mxGeometry relative="1" as="geometry">
            <mxPoint x="360" y="510" as="sourcePoint" />
            <mxPoint x="250" y="600" as="targetPoint" />
            <Array as="points">
              <mxPoint x="360" y="600" />
            </Array>
          </mxGeometry>
        </mxCell>
        <mxCell id="pVxgnFotbOAKtdbPvEfk-21" value="Библиотекарь" style="rounded=0;whiteSpace=wrap;html=1;" parent="1" vertex="1">
          <mxGeometry x="520" y="570" width="120" height="60" as="geometry" />
        </mxCell>
        <mxCell id="pVxgnFotbOAKtdbPvEfk-22" value="" style="endArrow=ERmandOne;html=1;rounded=0;exitX=0.5;exitY=1;exitDx=0;exitDy=0;startArrow=ERzeroToMany;startFill=0;endFill=0;entryX=0;entryY=0.5;entryDx=0;entryDy=0;" parent="1" target="pVxgnFotbOAKtdbPvEfk-21" edge="1">
          <mxGeometry relative="1" as="geometry">
            <mxPoint x="400" y="510" as="sourcePoint" />
            <mxPoint x="280" y="600" as="targetPoint" />
            <Array as="points">
              <mxPoint x="400" y="600" />
            </Array>
          </mxGeometry>
        </mxCell>
        <mxCell id="pVxgnFotbOAKtdbPvEfk-23" value="Возврат" style="rounded=1;whiteSpace=wrap;html=1;" parent="1" vertex="1">
          <mxGeometry x="320" y="690" width="120" height="60" as="geometry" />
        </mxCell>
        <mxCell id="pVxgnFotbOAKtdbPvEfk-24" value="" style="endArrow=ERzeroToMany;html=1;rounded=0;exitX=0.5;exitY=1;exitDx=0;exitDy=0;startArrow=ERoneToMany;startFill=0;endFill=0;entryX=0.5;entryY=0;entryDx=0;entryDy=0;" parent="1" target="pVxgnFotbOAKtdbPvEfk-23" edge="1">
          <mxGeometry relative="1" as="geometry">
            <mxPoint x="379.5" y="510" as="sourcePoint" />
            <mxPoint x="379.5" y="570" as="targetPoint" />
          </mxGeometry>
        </mxCell>
        <mxCell id="pVxgnFotbOAKtdbPvEfk-25" value="" style="endArrow=ERoneToMany;html=1;rounded=0;entryX=0;entryY=0.5;entryDx=0;entryDy=0;endFill=0;startArrow=ERzeroToMany;startFill=0;exitX=0;exitY=0.5;exitDx=0;exitDy=0;" parent="1" source="pVxgnFotbOAKtdbPvEfk-23" edge="1">
          <mxGeometry relative="1" as="geometry">
            <mxPoint x="40" y="500" as="sourcePoint" />
            <mxPoint x="120" y="500.5" as="targetPoint" />
            <Array as="points">
              <mxPoint x="80" y="720" />
              <mxPoint x="80" y="501" />
            </Array>
          </mxGeometry>
        </mxCell>
      </root>
    </mxGraphModel>
  </diagram>
</mxfile>
